<svg width="32" height="32" viewBox="0 0 32 32" fill="none" xmlns="http://www.w3.org/2000/svg">
<path d="M15.2346 4.08915C11.1474 4.85851 6.67552 8.92167 4.41553 13.8984C3.28554 16.3988 2.90087 18.202 3.02108 20.7746C3.0932 22.6499 3.23746 23.275 3.74235 24.2607C4.5117 25.7273 5.90616 27.1217 7.10828 27.6266C8.19019 28.0594 10.8348 28.1075 12.2053 27.6988C13.191 27.3862 14.898 25.9196 15.8837 24.5252L16.3646 23.8279L16.8935 24.7175C17.5427 25.7754 19.1535 27.1217 20.3556 27.6266C21.678 28.1796 24.3707 28.1075 25.693 27.4824C27.1115 26.8092 28.5541 25.1503 29.107 23.5875C29.8043 21.5439 29.66 18.2982 28.7464 15.6535C26.3662 8.77742 19.8748 3.22363 15.2346 4.08915ZM19.5863 6.6136C22.0386 7.91189 24.4909 10.5325 25.9815 13.4416C27.4 16.2305 27.9771 18.178 27.9771 20.2937C27.9771 22.4335 27.5443 23.6116 26.2941 24.8858C24.3226 26.9294 21.678 27.0737 19.6344 25.2705C18.7207 24.453 18.0476 23.1788 18.2639 22.6258C18.312 22.4575 19.0333 22.169 19.8267 22.0248C21.7741 21.6641 23.3609 20.8707 23.9379 19.9571C24.539 18.9954 24.4188 17.2163 23.6735 15.6295C22.8801 14.0187 20.7403 11.7827 19.2737 11.0614C17.4946 10.1719 15.1144 10.1719 13.2872 11.0855C10.5223 12.4799 8.21423 15.7978 8.21423 18.4184C8.21423 19.5484 8.28635 19.7407 9.05571 20.438C9.94528 21.2554 12.5178 22.2171 13.8161 22.2171C14.6095 22.2171 14.7297 22.7701 14.1767 23.852C13.0227 26.0639 10.1376 27.1217 7.82955 26.1841C2.8047 24.0684 3.64618 15.365 9.41635 9.40252C13.0948 5.60382 16.1242 4.78638 19.5863 6.6136ZM19.1054 12.0231C19.6824 12.5521 19.6824 13.0089 19.0814 13.3214C17.8552 13.9706 15.6914 12.6723 16.4608 11.7346C16.8695 11.2538 18.4322 11.4221 19.1054 12.0231ZM19.5382 14.2591C19.9709 14.5476 19.6824 15.2689 19.2016 15.1006C19.0092 15.0284 18.841 14.7399 18.841 14.4995C18.841 13.9946 19.0333 13.9465 19.5382 14.2591ZM21.7741 14.6918C22.3031 15.1486 22.3271 15.6295 21.8462 15.7978C21.3414 16.0142 20.4037 15.1727 20.596 14.6918C20.7884 14.1629 21.1971 14.1629 21.7741 14.6918ZM21.1009 17.4808C22.5435 18.1539 23.0724 18.8271 22.7118 19.5484C22.3752 20.1254 20.3556 20.9909 19.0573 21.0631C18.0235 21.1352 17.9995 21.1352 17.6869 20.1014C17.4465 19.3561 17.2061 19.0435 16.7252 18.9233C15.7635 18.6829 15.1625 19.2118 14.874 20.5822C14.7057 21.4237 14.2008 21.4477 12.0129 20.7746C9.3923 19.9571 8.98358 18.6588 11.0031 17.6731C13.2872 16.5191 18.7929 16.4229 21.1009 17.4808Z" fill="#1F1F1F"/>
</svg>
