<svg width="231" height="197" viewBox="0 0 231 197" fill="none" xmlns="http://www.w3.org/2000/svg">
<path d="M112.634 3.05455C80.179 9.16364 44.6699 41.4273 26.7245 80.9455C17.7517 100.8 14.6972 115.118 15.6517 135.545C16.2245 150.436 17.3699 155.4 21.379 163.227C27.4881 174.873 38.5608 185.945 48.1063 189.955C56.6972 193.391 77.6972 193.773 88.579 190.527C96.4063 188.045 109.961 176.4 117.788 165.327L121.606 159.791L125.806 166.855C130.961 175.255 143.752 185.945 153.297 189.955C163.797 194.345 185.179 193.773 195.679 188.809C206.943 183.464 218.397 170.291 222.788 157.882C228.324 141.655 227.179 115.882 219.924 94.8818C201.024 40.2818 149.479 -3.81818 112.634 3.05455ZM147.188 23.1C166.661 33.4091 186.134 54.2182 197.97 77.3182C209.234 99.4636 213.815 114.927 213.815 131.727C213.815 148.718 210.379 158.073 200.452 168.191C184.797 184.418 163.797 185.564 147.57 171.245C140.315 164.755 134.97 154.636 136.688 150.245C137.07 148.909 142.797 146.618 149.097 145.473C164.561 142.609 177.161 136.309 181.743 129.055C186.515 121.418 185.561 107.291 179.643 94.6909C173.343 81.9 156.352 64.1455 144.706 58.4182C130.579 51.3546 111.679 51.3546 97.1699 58.6091C75.2154 69.6818 56.8881 96.0273 56.8881 116.836C56.8881 125.809 57.4608 127.336 63.5699 132.873C70.6336 139.364 91.0608 147 101.37 147C107.67 147 108.624 151.391 104.234 159.982C95.0699 177.545 72.1608 185.945 53.8336 178.5C13.9336 161.7 20.6154 92.5909 66.4336 45.2455C95.6426 15.0818 119.697 8.59091 147.188 23.1ZM143.37 66.0546C147.952 70.2545 147.952 73.8818 143.179 76.3636C133.443 81.5182 116.261 71.2091 122.37 63.7636C125.615 59.9455 138.024 61.2818 143.37 66.0546ZM146.806 83.8091C150.243 86.1 147.952 91.8273 144.134 90.4909C142.606 89.9182 141.27 87.6273 141.27 85.7182C141.27 81.7091 142.797 81.3273 146.806 83.8091ZM164.561 87.2455C168.761 90.8727 168.952 94.6909 165.134 96.0273C161.124 97.7455 153.679 91.0636 155.206 87.2455C156.734 83.0455 159.979 83.0455 164.561 87.2455ZM159.215 109.391C170.67 114.736 174.87 120.082 172.006 125.809C169.334 130.391 153.297 137.264 142.988 137.836C134.779 138.409 134.588 138.409 132.106 130.2C130.197 124.282 128.288 121.8 124.47 120.845C116.834 118.936 112.061 123.136 109.77 134.018C108.434 140.7 104.424 140.891 87.0517 135.545C66.2426 129.055 62.9972 118.745 79.0336 110.918C97.1699 101.755 140.888 100.991 159.215 109.391Z" fill="#EFEFEF"/>
</svg>
