<svg width="907" height="556" viewBox="0 0 907 556" fill="none" xmlns="http://www.w3.org/2000/svg">
<path d="M433.065 2.00024C418.799 6.26691 405.332 23.8669 405.332 38.2669C405.332 45.6002 409.332 51.0669 419.599 57.8669C425.199 61.6002 426.799 62.0002 436.132 62.0002C441.865 62.0002 448.132 61.3336 450.265 60.5336C462.399 56.0002 471.999 44.2669 471.999 34.0002C471.999 26.1336 469.199 16.8002 465.332 11.3336C459.465 3.06691 444.132 -1.33309 433.065 2.00024ZM450.932 7.33357C460.399 10.0002 466.665 20.8002 466.665 34.2669C466.665 39.7336 465.999 41.4669 461.732 46.2669C454.799 53.8669 448.132 56.6669 436.532 56.6669C428.265 56.6669 426.399 56.1336 420.932 52.5336C417.465 50.2669 413.732 47.0669 412.665 45.6002C407.599 38.4002 412.665 23.7336 423.465 14.1336C432.265 6.40024 440.399 4.40024 450.932 7.33357Z" fill="#1F1F1F"/>
<path d="M595.067 3.33357C583.467 8.53357 572.134 24.2669 571.067 36.5336C570.401 44.6669 573.467 49.3336 584.001 56.4002C592.001 61.7336 592.801 62.0002 602.534 62.0002C610.934 62.0002 614.134 61.3336 619.734 58.5336C627.867 54.5336 635.467 46.1336 637.334 39.3336C638.801 33.7336 637.201 21.4669 634.267 15.7336C627.334 2.53357 609.201 -3.19976 595.067 3.33357ZM622.534 9.86691C628.534 14.1336 632.134 22.6669 632.267 32.8002C632.401 40.4002 632.134 41.0669 627.201 46.2669C620.001 53.7336 613.201 56.6669 602.534 56.6669C595.201 56.6669 592.934 56.0002 587.867 52.8002C578.401 46.9336 575.601 42.5336 576.534 35.4669C578.001 24.8002 587.467 12.5336 597.867 7.86691C604.267 4.93357 617.067 6.00024 622.534 9.86691Z" fill="#1F1F1F"/>
<path d="M722.935 17.7335C720.801 19.8669 720.268 23.3335 719.601 43.4669C718.535 77.3335 716.001 86.5335 706.401 91.4669C700.135 94.6669 694.268 94.6669 680.001 91.3335C673.735 89.8669 665.201 88.6669 660.935 88.6669C654.535 88.6669 652.668 89.2002 650.001 92.0002C643.601 98.2669 646.668 114.534 655.068 118.934C657.735 120.267 665.468 121.467 676.668 122.267C686.135 122.934 696.668 124.267 700.001 125.067C705.735 126.667 706.001 127.067 706.401 131.867C707.468 144.667 689.601 168.8 668.268 183.467C649.068 196.667 642.801 203.2 642.668 210.267C642.668 214.8 648.401 221.6 653.201 222.667C658.135 223.734 668.935 219.867 680.935 212.934C706.401 198 722.268 178 728.135 153.2C732.401 134.934 732.001 135.2 750.001 134C760.668 133.334 762.668 132.8 768.268 128.934C784.135 118 783.601 105.2 767.068 102.667C759.068 101.467 752.135 98.6669 749.868 95.6002C746.935 91.8669 747.735 85.8669 753.335 70.1335C759.735 52.2669 760.135 44.6669 755.468 34.6669C749.068 20.6669 729.868 10.8002 722.935 17.7335ZM736.668 23.2002C742.935 26.1335 749.868 33.0669 751.868 38.4002C754.535 45.4669 753.468 54.0002 747.868 70.2669C741.868 87.6002 741.468 94.2669 746.268 99.6002C749.068 102.8 758.135 107.2 762.001 107.334C763.468 107.334 766.935 108 769.735 108.8C775.735 110.4 776.135 113.334 771.201 119.334C765.601 125.867 760.535 127.867 747.068 128.667C736.401 129.334 734.268 129.867 731.335 132.667C726.401 137.2 725.735 138.8 723.335 150.8C718.135 175.734 699.868 197.467 672.001 211.334C660.401 217.2 656.268 218.267 652.801 216.4C643.068 211.334 646.801 205.067 669.068 189.467C683.868 179.067 692.401 171.2 699.601 161.067C711.068 144.934 714.668 131.2 709.335 124.267C706.001 120 698.668 118.4 675.335 116.8C659.068 115.734 658.001 115.467 655.068 112.134C651.601 108.134 650.801 98.4002 653.601 95.6002C656.001 93.2002 665.868 93.6002 679.468 96.6669C693.468 99.7335 701.201 100 707.068 97.4669C720.135 92.0002 725.335 74.9335 725.335 37.7335C725.335 19.3335 726.135 18.2669 736.668 23.2002Z" fill="#1F1F1F"/>
<path d="M538 24.6668C523.6 27.7335 504.8 37.4668 496.533 46.2668C477.866 66.2668 476.933 97.4668 494 145.333C501.866 167.733 504.4 180 503.733 192.533C502.933 205.867 500.266 211.2 490 219.333C484.133 224 480.4 228.267 478.133 232.933C472.266 244.667 474.266 251.867 484.133 255.867C493.466 259.6 498.533 257.2 513.333 242.133C534.933 220 540.8 207.2 540.533 181.333C540.4 162.667 538.933 156.133 526 118C515.6 87.2001 514.933 80.4001 521.2 71.7335C526.8 64.1335 532.8 59.8668 542 57.3335C554.933 53.7335 564 46.0001 564 38.6668C564 35.2001 560.266 28.1335 557.466 26.4001C554 24.2668 544.266 23.3335 538 24.6668ZM556.533 32.9335C562.266 41.0668 556.533 47.0668 537.866 52.8001C530.8 54.9335 527.6 56.9335 522.666 62.0001C508.666 76.4001 508.533 82.4001 521.866 122.4C527.333 138.667 532.8 157.067 533.866 163.2C539.2 191.2 534.8 208.667 517.2 230.667C506.4 244 496.8 251.333 490 251.333C475.2 251.333 477.066 237.733 493.866 222.933C505.066 213.067 508.133 207.2 508.933 193.867C509.866 180.667 507.866 170 499.733 146C484.933 102.533 483.333 78.4001 493.6 58.9335C499.733 47.6001 506.266 42.5335 526 34.4001C534.4 30.9335 538.533 30.0001 545.6 30.0001C553.333 30.0001 554.8 30.4001 556.533 32.9335Z" fill="#1F1F1F"/>
<path d="M80.6667 30.9335C52.1333 37.4668 45.4667 40.6668 34.2667 52.6668C24.9333 62.5335 24.6667 63.0668 17.8667 81.3335C13.3333 93.4668 12.8 96.1335 12.4 110.4C12 125.2 12.1333 126.533 16.1333 137.067C18.4 143.067 21.0667 149.867 22.1333 152.267C26.5333 162.134 22.4 177.2 12 188C2.8 197.6 0 202.934 0 210.8C0 222.8 8.26667 229.6 21.7333 228.4C30.9333 227.6 38 224.134 45.3333 216.667C66 195.6 70 157.867 55.3333 124.4C47.2 105.867 49.6 89.2002 62.4 77.7335C68.8 72.0002 76.9333 69.3335 93.7333 67.4668C110.8 65.4668 114.4 62.2668 115.6 47.4668C116.4 38.4002 116.267 38.0002 112.267 34.1335C108.267 30.1335 108 30.0002 95.7333 30.1335C88.9333 30.2668 82.1333 30.5335 80.6667 30.9335ZM105.6 38.2668C106.667 39.2002 108.4 41.8668 109.333 44.2668C110.8 48.2668 110.667 48.9335 106.8 53.7335C102.933 58.8002 102.4 58.9335 92.4 59.8668C78.9333 61.0668 65.7333 65.0668 59.7333 69.6002C52.6667 75.0668 46.2667 90.4002 45.6 103.467C45.0667 112.8 45.4667 114.533 49.7333 124.4C60.9333 149.867 61.7333 178.534 51.7333 198.4C43.4667 214.934 30.1333 224.267 16.8 222.934C8.4 222.134 5.33333 218.8 5.33333 210.4C5.33333 204.8 5.86667 204 14.5333 195.867C27.2 184 29.3333 178.667 28.8 160.534C28.4 147.867 27.8667 145.333 22.6667 132.267C17.2 118.533 17.0667 117.467 17.7333 106.933C18.8 87.6002 25.6 72.4002 39.2 58.2668C49.8667 47.0668 58.8 43.0668 83.3333 38.6668C95.6 36.4002 103.067 36.2668 105.6 38.2668Z" fill="#1F1F1F"/>
<path d="M288.666 58.8001C286.932 60.6667 285.199 64.4001 284.799 67.0667C283.199 76.8001 281.599 156.267 282.666 170C284.666 194.8 292.532 208.267 309.732 216.133C320.799 221.2 334.932 221.467 343.732 216.933C357.466 209.6 364.266 200.4 369.332 181.6C375.466 159.2 385.599 84.4001 383.599 76.4001C382.399 71.6001 376.399 68.5334 366.532 67.7334C357.732 66.9334 355.732 67.8667 352.132 75.2001C350.132 79.0667 349.466 84.8001 348.932 103.333C347.866 130.933 345.466 149.2 340.532 164.667C336.132 178.8 332.799 185.467 329.199 187.333C325.332 189.467 322.799 188.133 320.399 182.4C317.732 176 316.666 131.6 318.266 91.3334C319.332 65.2001 319.199 63.8667 316.666 60.9334C313.732 57.6001 306.399 55.4667 297.599 55.3334C293.199 55.3334 291.199 56.1334 288.666 58.8001ZM308.132 62.0001L312.799 63.3334V119.6C312.666 180.4 313.066 184 319.466 190.533C326.266 197.333 333.999 193.733 339.866 181.2C348.666 162.533 352.532 141.867 354.532 103.333C356.132 73.7334 356.799 71.8667 366.799 73.0667C378.532 74.5334 379.066 75.2001 378.132 87.7334C374.932 124.933 367.066 173.333 361.599 189.067C352.666 214.4 324.532 222.8 302.932 206.4C297.066 202 292.399 194.267 289.999 185.067C286.399 171.067 287.866 67.6001 291.866 62.8001C293.866 60.4001 300.932 60.0001 308.132 62.0001Z" fill="#1F1F1F"/>
<path d="M168.534 79.8667C150.801 85.4667 129.201 103.6 121.601 119.333C116.401 130.133 114.134 146.667 114.801 170.933C115.334 186.4 115.734 188.667 119.068 195.6C126.534 210.8 139.201 217.333 160.001 216.933C166.268 216.8 174.668 215.733 178.668 214.533C182.668 213.333 187.868 212.267 190.001 212.267L194.001 212L194.934 224C195.334 230.533 195.734 250.4 195.868 268C195.868 303.733 197.068 313.467 202.001 320.8C206.401 327.6 216.001 332.933 224.668 333.733C233.734 334.533 242.268 330.267 252.134 319.867C261.334 310 266.801 302.133 272.668 289.733C280.534 273.333 278.534 264.667 266.801 264.667C259.201 264.667 252.401 267.733 245.734 274.4C241.468 278.4 239.601 279.467 238.534 278.4C237.468 277.333 237.201 260.8 237.601 220.4L238.268 164L242.668 147.2C248.134 126.267 247.734 121.867 239.068 109.067C227.201 91.3334 218.934 85.3334 200.534 80.6667C188.934 77.6001 176.534 77.3334 168.534 79.8667ZM203.334 86.5334C215.468 90.2667 223.868 96.4001 231.601 107.333C241.334 121.067 242.401 125.067 239.601 137.867C238.401 143.467 236.401 151.333 235.201 155.333C233.201 161.733 232.801 170.4 232.801 224.933C232.668 283.333 232.801 287.333 235.068 289.6C237.468 291.867 237.601 291.867 241.468 287.333C243.734 284.8 247.334 280.667 249.468 278.4C256.934 270.133 270.801 267.2 271.734 273.733C272.801 281.333 262.268 301.2 249.468 315.6C243.201 322.667 232.268 328.667 225.734 328.667C220.668 328.667 214.268 325.867 209.601 321.467C202.668 315.2 202.534 314.4 201.201 260.4C200.401 224.133 199.601 209.067 198.401 207.733C196.534 205.333 188.268 206 177.334 209.2C172.134 210.8 166.134 211.333 156.668 211.067C139.868 210.533 132.268 207.333 126.534 198.133C120.934 189.467 120.001 184.667 120.001 166C120.134 131.467 123.868 119.6 139.601 104.533C149.468 95.0667 157.201 90.0001 168.268 85.8667C176.534 82.8001 191.868 83.0667 203.334 86.5334Z" fill="#1F1F1F"/>
<path d="M175.599 103.467C163.066 105.333 151.066 118 145.866 134.667C142.799 144.267 141.999 164.267 143.999 174.134C147.733 191.6 162.666 197.467 180.666 188.8C195.733 181.6 205.599 168.934 211.866 149.334C218.133 129.867 217.866 125.334 210.399 117.2C199.999 105.867 188.933 101.6 175.599 103.467ZM194.399 110.933C197.199 112.267 201.866 115.867 205.066 118.934C209.999 124 210.666 125.334 210.666 130.8C210.666 138.667 203.866 159.2 198.799 166.534C189.866 179.334 178.266 186.534 165.733 186.534C155.466 186.667 151.466 183.6 149.466 173.734C143.866 148 153.066 119.734 169.999 110.933C175.466 108 188.266 108 194.399 110.933Z" fill="#1F1F1F"/>
<path d="M420.001 83.2002C410.935 88.0002 410.535 89.0669 408.668 112.934C407.601 124.934 405.868 146 404.801 159.734C403.601 173.6 402.668 192.134 402.668 200.934C402.668 216.667 402.668 216.934 406.401 220.667C408.535 222.667 412.535 225.067 415.468 225.867C419.735 227.067 421.468 226.934 426.135 224.667C437.468 219.067 437.868 218 438.801 192.267C439.335 179.6 440.668 157.067 442.001 142C443.201 126.934 444.001 108.4 443.735 100.667L443.335 86.8002L438.801 83.7336C433.335 80.0002 426.401 79.8669 420.001 83.2002ZM437.601 88.1336C439.468 89.3336 438.668 118 436.001 150C434.535 167.2 433.335 185.867 433.335 191.334C433.335 196.8 432.935 204.534 432.401 208.4C431.735 214.934 431.201 215.734 426.535 218.134C419.868 221.467 415.868 221.334 411.335 217.734L407.601 214.8L408.401 192.134C409.068 172.534 413.335 114.8 415.468 96.9336C416.135 91.6002 416.668 90.9336 421.735 88.5336C426.801 86.1336 434.135 86.0002 437.601 88.1336Z" fill="#1F1F1F"/>
<path d="M585.065 83.4668C577.065 87.6002 576.265 90.0002 574.665 112C573.865 123.067 572.665 137.067 571.998 143.333C571.332 149.467 569.998 167.467 569.065 183.333C567.332 215.6 567.598 217.467 575.865 222.933C583.598 228.133 591.198 226.933 599.732 218.933C603.865 214.933 603.998 214.533 603.998 203.467C603.998 197.067 605.198 177.6 606.665 160C609.998 116.933 611.198 93.7335 610.132 89.4668C608.132 81.4668 594.798 78.2668 585.065 83.4668ZM602.532 88.1335C605.598 90.4002 605.732 90.5335 604.798 107.867C604.265 117.467 602.665 140.267 601.198 158.533C599.865 176.8 598.665 196.667 598.665 202.8C598.665 213.467 598.532 213.867 594.798 216.533C589.198 220.533 583.732 221.333 578.798 218.8C575.865 217.2 574.665 215.6 574.532 212.933C573.732 198.133 575.865 153.2 577.998 138C578.398 135.467 579.332 124.4 579.998 113.333C580.932 102 582.132 92.5335 583.065 91.4668C585.198 88.9335 591.865 86.1335 595.998 86.0002C597.865 86.0002 600.798 86.9335 602.532 88.1335Z" fill="#1F1F1F"/>
<path d="M840.532 86.0001C826.132 90.6668 806.132 106 800.532 116.8C793.999 129.467 791.332 156.533 795.199 170.933C801.065 192.8 818.399 208.4 839.999 210.933C857.465 212.933 888.799 190.933 898.932 169.333C906.932 152.133 908.932 128.4 903.865 111.867C900.132 99.8668 889.465 88.6668 878.665 85.4668C868.799 82.5335 850.799 82.8001 840.532 86.0001ZM882.265 91.4668C892.932 96.6668 899.465 107.2 901.732 122.933C904.265 140.8 899.332 162.533 889.732 176.533C879.332 191.6 856.132 206.133 842.532 206.133C829.999 206.133 815.332 198.667 807.999 188.4C800.532 178.133 798.132 169.6 798.132 152.667C798.132 140.133 798.665 135.6 801.332 127.333C804.132 118.533 805.465 116.267 813.199 108.667C822.665 99.3335 833.999 92.5335 845.465 89.3335C855.332 86.5335 874.399 87.6001 882.265 91.4668Z" fill="#1F1F1F"/>
<path d="M737.999 247.334C717.599 249.467 690.666 258.267 672.933 268.8C648.799 282.8 610.133 316.934 586.799 344.4C577.866 354.934 571.333 358.534 560.666 358.534C554.666 358.534 550.666 357.6 544.666 354.934C534.266 350.134 530.799 346.667 520.399 330.934C510.266 315.6 503.999 310.267 480.799 297.067C453.866 281.734 425.599 270.134 392.933 260.667C359.866 251.2 354.266 254.267 363.466 276.667C365.999 283.2 367.866 289.067 367.466 289.734C367.066 290.4 362.799 291.334 357.999 291.867C347.733 292.934 343.066 294.534 339.066 298.267C334.666 302.4 335.199 307.6 340.666 315.734C343.199 319.467 345.333 323.334 345.333 324.134C345.333 327.2 341.333 328.934 329.866 330.667C309.999 334 307.199 339.867 319.466 352.667C328.933 362.667 328.666 364.4 316.266 372.934C297.866 385.467 298.933 395.867 319.066 401.6C323.466 402.8 327.199 404.534 327.599 405.6C327.999 406.667 324.666 411.2 319.466 416.534C309.866 426.534 309.066 429.2 313.199 436.134C315.466 440 321.599 443.734 331.066 447.2C333.066 448 334.666 449.2 334.666 450C334.666 452.267 331.999 456.934 327.866 461.734C325.599 464.267 323.999 467.6 323.999 469.867C323.999 476.534 333.733 482.8 346.399 484.4C352.799 485.2 353.999 485.734 354.399 488.134C354.666 489.734 353.333 493.2 351.466 496C347.066 502.4 344.799 510.133 345.866 514.533C347.599 521.333 352.666 522.8 375.733 523.467C384.266 523.6 385.466 525.467 380.933 531.6C376.533 537.6 373.333 544 373.333 547.2C373.333 551.467 379.466 555.333 386.533 555.333C395.866 555.333 433.866 544.533 444.666 538.8C446.933 537.733 456.266 533.2 465.599 528.8C474.799 524.533 485.333 518.933 488.933 516.533C499.599 509.2 514.266 494.267 527.733 476.667C550.399 447.2 560.799 438.934 574.666 438.934C580.666 438.934 583.733 439.734 588.533 442.534C597.733 447.867 610.933 460.8 621.199 474.534C631.866 488.667 643.866 500.533 655.866 508.667C665.733 515.2 700.133 532.133 713.999 537.067C725.466 541.067 759.199 548.667 765.999 548.667C771.866 548.667 779.333 545.333 781.999 541.467C785.866 536.133 784.533 531.733 776.666 523.467C766.799 513.067 766.933 511.733 778.399 511.6C792.399 511.6 803.999 506.267 803.999 500.133C803.999 498.533 802.133 494.267 799.999 490.667C795.866 483.6 794.933 477.867 797.733 475.6C798.533 474.934 802.666 473.334 806.666 472.267C814.399 470 820.266 465.067 821.999 459.6C823.333 454.934 820.533 449.467 813.199 443.334C809.599 440.267 806.666 436.667 806.666 435.334C806.666 433.734 809.466 430.8 814.399 427.467C823.733 421.2 825.733 418.934 825.733 414.667C825.733 410.134 822.666 407.067 814.666 403.334C806.799 399.6 805.333 396.934 809.599 393.6C824.399 382.267 826.399 379.2 823.866 371.734C822.133 366.4 813.733 359.734 807.199 358.534C799.199 357.067 799.066 355.334 806.133 342.267C810.933 333.2 812.133 329.6 811.466 326.934C810.266 322.134 804.399 319.334 793.199 318.4C781.466 317.467 779.733 315.6 784.533 309.334C792.133 299.334 793.733 286.4 787.866 283.2C785.866 282.134 782.133 282.134 774.266 283.334C751.733 286.667 748.133 283.334 760.266 270.134C766.799 263.2 770.666 255.467 770.666 249.734C770.666 246 758.533 245.2 737.999 247.334ZM762.133 254.667C763.066 257.067 758.533 264.667 754.666 267.067C750.666 269.6 746.666 276.667 746.666 281.6C746.666 290.934 753.333 293.067 773.599 289.867C779.999 288.934 783.333 288.8 784.266 289.734C786.666 292.134 784.133 299.867 778.666 306.534C769.066 318.134 772.399 322.8 791.333 324.534C808.266 326.134 808.133 325.867 796.666 346.534C792.666 353.734 789.733 360.134 789.999 360.667C790.266 361.2 793.333 362 796.799 362.534C810.133 364.267 820.533 372 817.866 378C817.199 379.467 813.733 382.934 809.999 385.734C806.399 388.534 802.533 392.267 801.466 394.267C799.733 397.334 799.733 398 801.866 401.2C803.066 403.2 807.333 406.4 811.333 408.267C820.666 412.934 820.933 415.867 812.666 421.067C805.066 426 799.999 432 799.999 436.267C799.999 438.8 802.133 441.734 807.999 447.067C819.333 457.467 818.399 462.534 804.666 466.134C796.666 468.134 793.333 470.134 791.199 474.267C788.533 479.467 788.799 481.867 793.466 491.2C796.399 496.933 797.199 500 796.266 500.933C793.733 503.467 779.599 506 773.066 505.2C765.466 504.133 762.666 505.867 762.666 511.6C762.666 516.933 765.466 521.733 771.866 527.733C777.999 533.6 778.666 536.933 774.399 539.867C769.866 543.067 760.799 542.4 739.066 537.467C702.933 529.067 662.533 509.2 641.466 489.467C639.066 487.2 631.599 478.134 624.933 469.467C605.599 444.134 589.733 432.667 574.133 432.667C559.066 432.667 546.399 442.4 525.066 470.4C509.866 490.667 496.799 503.733 484.266 511.867C474.266 518.4 448.933 530.267 439.866 532.667C436.933 533.467 428.399 536.133 420.933 538.533C403.199 544.267 385.599 548.133 383.999 546.533C383.199 545.733 385.199 541.333 388.666 535.333C395.066 524.8 395.599 522.533 392.933 518.933C391.733 517.2 388.533 516.667 377.333 516.4C362.933 516.133 354.666 514 354.666 510.8C354.666 509.867 355.999 505.733 357.733 501.867C364.533 486.134 361.866 480 347.599 478C337.466 476.534 330.666 473.6 330.666 470.667C330.666 469.6 332.533 466.134 334.799 463.067C339.733 456.134 344.399 445.867 343.066 444.667C342.399 444.267 338.666 442.8 334.533 441.6C324.933 438.667 318.133 434.134 317.599 430.134C317.199 427.734 319.066 425.2 325.066 419.467C329.466 415.334 333.733 410.534 334.666 408.8C337.199 403.734 332.933 399.2 322.266 396C306.533 391.2 305.999 387.467 319.866 378C336.399 366.8 337.333 360.934 324.133 349.067C315.599 341.467 317.066 339.2 331.866 337.067C352.133 334.134 355.999 327.6 345.999 312.934C340.666 305.2 341.466 302.534 349.599 300C353.333 298.934 359.866 298 363.999 298C368.133 298 372.133 297.334 373.066 296.4C375.733 293.734 374.799 287.867 369.866 276.667C367.333 270.667 365.466 264.934 365.866 263.867C367.466 259.867 381.466 262.934 416.133 274.8C451.599 286.934 488.266 305.734 503.466 319.734C507.466 323.334 513.333 330.667 516.399 335.867C526.133 352.267 537.466 360.934 554.133 364.667C566.799 367.6 580.133 362.4 589.599 351.2C611.333 325.2 623.199 313.334 645.999 295.2C681.199 266.934 714.133 254 753.733 252.934C759.466 252.667 761.599 253.2 762.133 254.667Z" fill="#1F1F1F"/>
<path d="M374.667 323.067C374.667 328.8 371.867 332 363.601 335.733C360.801 336.933 358.267 338.8 357.867 339.867C357.467 340.933 358.667 344.533 360.667 347.867C364.401 354.267 364.134 356.4 358.934 362.4C357.334 364.267 357.201 365.067 358.534 366.4C359.867 367.6 361.067 366.933 364.801 363.067C370.267 357.067 370.534 352.933 365.867 347.467C364.001 345.2 362.667 342.8 362.934 342C363.067 341.333 366.001 339.333 369.334 337.733C377.067 333.733 381.334 326.667 378.934 321.467C376.667 316.4 374.667 317.2 374.667 323.067Z" fill="#1F1F1F"/>
<path d="M754.668 322.267C754.668 327.467 758.401 334.133 763.335 337.467C765.201 338.933 768.001 340.933 769.601 342.133L772.268 344.133L769.468 349.733C765.335 357.867 765.735 363.6 770.801 367.867C773.068 369.733 776.001 371.333 777.468 371.333C779.201 371.333 780.001 372.267 780.001 374.533C780.001 376.4 779.335 378.267 778.535 378.667C777.868 379.2 776.668 381.067 776.001 382.8C774.401 386.933 776.268 392.133 781.601 397.6C785.601 401.733 785.735 403.067 783.335 408.933C782.001 412.133 785.601 412.133 788.401 408.933C792.001 404.933 791.068 400.8 785.335 394.533C782.401 391.333 780.001 387.733 780.001 386.4C780.001 385.2 781.601 381.867 783.468 379.067C785.468 376.267 786.668 373.2 786.135 372C785.735 370.8 782.401 368.667 778.668 367.067C770.001 363.467 768.935 360.133 773.868 350.667C777.868 342.667 777.468 340.267 771.735 337.867C765.868 335.467 758.801 327.733 757.868 322.533C756.801 316.8 754.668 316.667 754.668 322.267Z" fill="#1F1F1F"/>
<path d="M631.733 343.067C629.866 344.267 621.866 351.2 613.999 358.267C593.066 377.467 575.999 386.667 558.399 388.267C548.399 389.2 549.866 391.333 560.399 391.333C572.133 391.333 583.999 388.133 596.533 381.733C605.599 377.2 609.999 373.6 623.733 359.733C632.666 350.667 639.733 342.667 639.333 342C638.133 340 635.733 340.4 631.733 343.067Z" fill="#1F1F1F"/>
<path d="M474.001 358.4C481.334 362.267 491.201 367.733 496.001 370.667C504.667 375.867 524.134 384.667 527.067 384.667C528.934 384.667 504.001 368.4 491.467 361.467C482.267 356.267 468.267 351.333 463.334 351.333C461.867 351.467 466.667 354.533 474.001 358.4Z" fill="#1F1F1F"/>
<path d="M567.999 415.333C569.066 416 572.133 416.667 574.666 416.667C580.799 416.8 595.733 422.133 605.066 427.6C609.199 430 620.399 439.6 630.133 449.067C642.399 460.8 649.999 467.067 654.933 469.333C658.799 471.2 662.799 472.667 663.733 472.667C666.933 472.667 665.199 468.933 660.399 465.2C657.599 463.067 648.399 454.667 639.866 446.533C618.266 425.867 605.599 418.667 585.199 415.467C574.133 413.6 565.199 413.6 567.999 415.333Z" fill="#1F1F1F"/>
<path d="M540.668 419.867C531.335 422.933 518.268 428.8 507.335 435.067C494.935 442.133 470.268 459.333 471.202 460.267C472.135 461.2 505.335 443.733 518.802 435.2C524.935 431.333 534.268 425.867 539.335 423.067C549.202 417.867 549.468 417.067 540.668 419.867Z" fill="#1F1F1F"/>
<path d="M380.001 456.133C380.134 456.8 380.934 458.8 381.867 460.533C384.134 464.667 382.267 472.4 377.067 480.533C373.467 486.267 372.267 493.067 374.401 496.133C376.134 498.667 381.067 500.667 385.867 500.667C392.667 500.667 392.267 497.2 385.334 495.333C382.134 494.533 380.001 493.067 380.001 491.867C380.001 490.8 381.867 486.533 384.001 482.4C388.401 474.267 388.934 469.467 386.267 462.933C384.534 458.8 380.001 453.867 380.001 456.133Z" fill="#1F1F1F"/>
<path d="M745.865 498.133C742.398 502 742.265 514.4 745.865 515.067C748.132 515.6 748.265 514.933 747.465 509.733C746.932 506.4 747.198 502.133 747.998 500C749.865 495.2 749.065 494.533 745.865 498.133Z" fill="#1F1F1F"/>
</svg>
