<svg width="256" height="256" viewBox="0 0 256 256" fill="none" xmlns="http://www.w3.org/2000/svg">
<path d="M121.869 32.7132C89.1714 38.8681 53.3963 71.3734 35.3165 111.188C26.2765 131.191 23.1991 145.616 24.1608 166.196C24.7378 181.199 25.8919 186.2 29.931 194.086C36.0858 205.818 47.2415 216.974 56.8584 221.013C65.5137 224.475 86.671 224.86 97.6343 221.59C105.52 219.09 119.176 207.357 127.062 196.201L130.909 190.623L135.14 197.74C140.334 206.203 153.22 216.974 162.837 221.013C173.416 225.437 194.958 224.86 205.536 219.859C216.884 214.474 228.425 201.202 232.849 188.7C238.426 172.351 237.272 146.386 229.963 125.228C210.922 70.2193 158.99 25.789 121.869 32.7132ZM156.682 52.9088C176.301 63.2951 195.919 84.2601 207.844 107.533C219.192 129.844 223.809 145.424 223.809 162.35C223.809 179.468 220.346 188.892 210.345 199.086C194.573 215.435 173.416 216.589 157.067 202.164C149.758 195.624 144.373 185.43 146.104 181.007C146.488 179.66 152.259 177.352 158.606 176.198C174.185 173.313 186.88 166.966 191.496 159.657C196.304 151.963 195.342 137.73 189.38 125.036C183.033 112.149 165.915 94.2617 154.182 88.4915C139.949 81.375 120.907 81.375 106.29 88.6839C84.1705 99.8395 65.706 126.382 65.706 147.347C65.706 156.387 66.283 157.926 72.4379 163.504C79.5544 170.043 100.135 177.737 110.521 177.737C116.868 177.737 117.83 182.161 113.406 190.816C104.174 208.511 81.0931 216.974 62.6286 209.473C22.4298 192.547 29.1616 122.92 75.323 75.2201C104.751 44.8306 128.986 38.2911 156.682 52.9088ZM152.836 96.1851C157.452 100.417 157.452 104.071 152.643 106.571C142.834 111.765 125.523 101.378 131.678 93.877C134.948 90.0302 147.45 91.3766 152.836 96.1851ZM156.298 114.073C159.76 116.381 157.452 122.151 153.605 120.804C152.066 120.227 150.72 117.919 150.72 115.996C150.72 111.957 152.259 111.572 156.298 114.073ZM174.185 117.535C178.417 121.189 178.609 125.036 174.762 126.382C170.723 128.113 163.222 121.381 164.761 117.535C166.299 113.303 169.569 113.303 174.185 117.535ZM168.8 139.846C180.34 145.231 184.571 150.617 181.686 156.387C178.994 161.003 162.837 167.927 152.451 168.505C144.18 169.082 143.988 169.082 141.488 160.811C139.564 154.848 137.641 152.348 133.794 151.386C126.1 149.463 121.292 153.694 118.984 164.658C117.638 171.39 113.598 171.582 96.0956 166.196C75.1306 159.657 71.8609 149.271 88.0173 141.385C106.29 132.152 150.335 131.383 168.8 139.846Z" fill="#1F1F1F"/>
</svg>
